{
  "accessors": [
    {
      "bufferView": 2,
      "componentType": 5126,
      "count": 4,
      "max": [
        1.0,
        0.0,
        1.0
      ],
      "min": [
        -1.0,
        0.0,
        -1.0
      ],
      "type": "VEC3"
    },
    {
      "bufferView": 2,
      "byteOffset": 48,
      "componentType": 5126,
      "count": 4,
      "max": [
        0.0,
        1.0,
        -0.0
      ],
      "min": [
        0.0,
        1.0,
        -0.0
      ],
      "type": "VEC3"
    },
    {
      "bufferView": 1,
      "componentType": 5126,
      "count": 4,
      "max": [
        1.0,
        1.0
      ],
      "min": [
        0.0,
        0.0
      ],
      "type": "VEC2"
    },
    {
      "bufferView": 0,
      "componentType": 5125,
      "count": 6,
      "type": "SCALAR"
    },
    {
      "bufferView": 2,
      "byteOffset": 96,
      "componentType": 5126,
      "count": 576,
      "max": [
        2.0570030212402344,
        0.9999991059303284,
        2.047597885131836
      ],
      "min": [
        -2.0296170711517334,
        -1.0808714628219604,
        -2.039022922515869
      ],
      "type": "VEC3"
    },
    {
      "bufferView": 2,
      "byteOffset": 7008,
      "componentType": 5126,
      "count": 576,
      "max": [
        0.9951847195625305,
        1.0,
        0.9951847195625305
      ],
      "min": [
        -0.9951847195625305,
        -1.0,
        -0.9951847195625305
      ],
      "type": "VEC3"
    },
    {
      "bufferView": 1,
      "byteOffset": 32,
      "componentType": 5126,
      "count": 576,
      "max": [
        1.0,
        0.9650590419769287
      ],
      "min": [
        0.0,
        0.009999945759773254
      ],
      "type": "VEC2"
    },
    {
      "bufferView": 0,
      "byteOffset": 24,
      "componentType": 5125,
      "count": 942,
      "type": "SCALAR"
    },
    {
      "bufferView": 2,
      "byteOffset": 13920,
      "componentType": 5126,
      "count": 1728,
      "max": [
        3.771531343460083,
        0.012212157249450684,
        0.04967069625854492
      ],
      "min": [
        -3.665365695953369,
        -0.012212157249450684,
        -0.5233720541000366
      ],
      "type": "VEC3"
    },
    {
      "bufferView": 2,
      "byteOffset": 34656,
      "componentType": 5126,
      "count": 1728,
      "max": [
        1.0,
        1.0,
        1.0
      ],
      "min": [
        -1.0,
        -1.0,
        -1.0
      ],
      "type": "VEC3"
    },
    {
      "bufferView": 1,
      "byteOffset": 4640,
      "componentType": 5126,
      "count": 1728,
      "max": [
        0.875,
        1.0
      ],
      "min": [
        0.125,
        0.0
      ],
      "type": "VEC2"
    },
    {
      "bufferView": 0,
      "byteOffset": 3792,
      "componentType": 5125,
      "count": 2592,
      "type": "SCALAR"
    },
    {
      "bufferView": 2,
      "byteOffset": 55392,
      "componentType": 5126,
      "count": 24,
      "max": [
        3.705599546432495,
        0.05977674946188927,
        2.0645601749420166
      ],
      "min": [
        -3.705599546432495,
        -0.05977674946188927,
        -2.0645601749420166
      ],
      "type": "VEC3"
    },
    {
      "bufferView": 2,
      "byteOffset": 55680,
      "componentType": 5126,
      "count": 24,
      "max": [
        1.0,
        1.0,
        1.0
      ],
      "min": [
        -1.0,
        -1.0,
        -1.0
      ],
      "type": "VEC3"
    },
    {
      "bufferView": 1,
      "byteOffset": 18464,
      "componentType": 5126,
      "count": 24,
      "max": [
        0.875,
        1.0
      ],
      "min": [
        0.125,
        0.0
      ],
      "type": "VEC2"
    },
    {
      "bufferView": 0,
      "byteOffset": 14160,
      "componentType": 5125,
      "count": 36,
      "type": "SCALAR"
    },
    {
      "bufferView": 2,
      "byteOffset": 55968,
      "componentType": 5126,
      "count": 2232,
      "max": [
        0.2082996368408203,
        0.14124509692192078,
        0.2510984241962433
      ],
      "min": [
        -3.310403347015381,
        -0.06911735981702805,
        0.06870219111442566
      ],
      "type": "VEC3"
    },
    {
      "bufferView": 2,
      "byteOffset": 82752,
      "componentType": 5126,
      "count": 2232,
      "max": [
        1.0,
        1.0,
        0.9951846599578857
      ],
      "min": [
        -1.0,
        -1.0,
        -0.9951846599578857
      ],
      "type": "VEC3"
    },
    {
      "bufferView": 1,
      "byteOffset": 18656,
      "componentType": 5126,
      "count": 2232,
      "max": [
        1.0,
        1.0
      ],
      "min": [
        0.0,
        0.0
      ],
      "type": "VEC2"
    },
    {
      "bufferView": 0,
      "byteOffset": 14304,
      "componentType": 5125,
      "count": 3402,
      "type": "SCALAR"
    },
    {
      "bufferView": 2,
      "byteOffset": 109536,
      "componentType": 5126,
      "count": 6912,
      "max": [
        2.6131410598754883,
        0.4439240097999573,
        0.05450638756155968
      ],
      "min": [
        -4.301072120666504,
        -0.4361148476600647,
        -0.06723935902118683
      ],
      "type": "VEC3"
    },
    {
      "bufferView": 2,
      "byteOffset": 192480,
      "componentType": 5126,
      "count": 6912,
      "max": [
        0.999764621257782,
        1.0,
        0.9951852560043335
      ],
      "min": [
        -0.999764621257782,
        -1.0,
        -0.9951852560043335
      ],
      "type": "VEC3"
    },
    {
      "bufferView": 1,
      "byteOffset": 36512,
      "componentType": 5126,
      "count": 6912,
      "max": [
        1.0,
        1.0
      ],
      "min": [
        0.0,
        0.009999975562095642
      ],
      "type": "VEC2"
    },
    {
      "bufferView": 0,
      "byteOffset": 27912,
      "componentType": 5125,
      "count": 13392,
      "type": "SCALAR"
    }
  ],
  "asset": {
    "extras": {
      "author": "Joao_Cunha (https://sketchfab.com/Joao_Cunha)",
      "license": "CC-BY-4.0 (http://creativecommons.org/licenses/by/4.0/)",
      "source": "https://sketchfab.com/3d-models/billboard-aff09bb0f9114eafbf15bd0fcf128955",
      "title": "BILLBOARD"
    },
    "generator": "Sketchfab-14.25.0",
    "version": "2.0"
  },
  "bufferViews": [
    {
      "buffer": 0,
      "byteLength": 81480,
      "name": "floatBufferViews",
      "target": 34963
    },
    {
      "buffer": 0,
      "byteLength": 91808,
      "byteOffset": 81480,
      "byteStride": 8,
      "name": "floatBufferViews",
      "target": 34962
    },
    {
      "buffer": 0,
      "byteLength": 275424,
      "byteOffset": 173288,
      "byteStride": 12,
      "name": "floatBufferViews",
      "target": 34962
    }
  ],
  "buffers": [
    {
      "byteLength": 448712,
      "uri": "scene.bin"
    }
  ],
  "materials": [
    {
      "doubleSided": true,
      "name": "Material.002",
      "pbrMetallicRoughness": {
        "metallicFactor": 0.0,
        "roughnessFactor": 0.5
      }
    },
    {
      "doubleSided": true,
      "name": "bb_trim.002",
      "pbrMetallicRoughness": {
        "baseColorFactor": [
          0.318539,
          0.318539,
          0.318539,
          1.0
        ],
        "roughnessFactor": 0.2
      }
    },
    {
      "doubleSided": true,
      "name": "bb_trim",
      "pbrMetallicRoughness": {
        "baseColorFactor": [
          0.318539,
          0.318539,
          0.318539,
          1.0
        ],
        "roughnessFactor": 0.2
      }
    }
  ],
  "meshes": [
    {
      "name": "Object_0",
      "primitives": [
        {
          "attributes": {
            "NORMAL": 1,
            "POSITION": 0,
            "TEXCOORD_0": 2
          },
          "indices": 3,
          "material": 0,
          "mode": 4
        }
      ]
    },
    {
      "name": "Object_1",
      "primitives": [
        {
          "attributes": {
            "NORMAL": 5,
            "POSITION": 4,
            "TEXCOORD_0": 6
          },
          "indices": 7,
          "material": 1,
          "mode": 4
        }
      ]
    },
    {
      "name": "Object_2",
      "primitives": [
        {
          "attributes": {
            "NORMAL": 9,
            "POSITION": 8,
            "TEXCOORD_0": 10
          },
          "indices": 11,
          "material": 2,
          "mode": 4
        }
      ]
    },
    {
      "name": "Object_3",
      "primitives": [
        {
          "attributes": {
            "NORMAL": 13,
            "POSITION": 12,
            "TEXCOORD_0": 14
          },
          "indices": 15,
          "material": 1,
          "mode": 4
        }
      ]
    },
    {
      "name": "Object_4",
      "primitives": [
        {
          "attributes": {
            "NORMAL": 17,
            "POSITION": 16,
            "TEXCOORD_0": 18
          },
          "indices": 19,
          "material": 1,
          "mode": 4
        }
      ]
    },
    {
      "name": "Object_5",
      "primitives": [
        {
          "attributes": {
            "NORMAL": 21,
            "POSITION": 20,
            "TEXCOORD_0": 22
          },
          "indices": 23,
          "material": 1,
          "mode": 4
        }
      ]
    }
  ],
  "nodes": [
    {
      "children": [
        1
      ],
      "matrix": [
        1.0,
        0.0,
        0.0,
        0.0,
        0.0,
        2.220446049250313e-16,
        -1.0,
        0.0,
        0.0,
        1.0,
        2.220446049250313e-16,
        0.0,
        0.0,
        0.0,
        0.0,
        1.0
      ],
      "name": "Sketchfab_model"
    },
    {
      "children": [
        2
      ],
      "name": "root"
    },
    {
      "children": [
        3,
        5,
        7,
        9,
        11,
        13
      ],
      "matrix": [
        1.0,
        0.0,
        0.0,
        0.0,
        0.0,
        2.220446049250313e-16,
        1.0,
        0.0,
        0.0,
        -1.0,
        2.220446049250313e-16,
        0.0,
        0.0,
        0.0,
        0.0,
        1.0
      ],
      "name": "GLTF_SceneRootNode"
    },
    {
      "children": [
        4
      ],
      "matrix": [
        3.689978837966919,
        0.0,
        0.0,
        0.0,
        0.0,
        -0.024348393363223513,
        8.08562618149982,
        0.0,
        0.0,
        -2.075667983770862,
        -0.006250496798372562,
        0.0,
        -0.8435876965522766,
        6.326416969299316,
        4.406607151031494,
        1.0
      ],
      "name": "Plane.001_0"
    },
    {
      "mesh": 0,
      "name": "Object_4"
    },
    {
      "children": [
        6
      ],
      "matrix": [
        0.21583816409111023,
        0.0,
        0.0,
        0.0,
        0.0,
        2.2091023921966553,
        0.0,
        0.0,
        0.0,
        0.0,
        0.21583816409111023,
        0.0,
        -0.8286692500114441,
        2.0565028190612793,
        4.208352565765381,
        1.0
      ],
      "name": "Cylinder_1"
    },
    {
      "mesh": 1,
      "name": "Object_6"
    },
    {
      "children": [
        8
      ],
      "matrix": [
        1.0,
        0.0,
        0.0,
        0.0,
        0.0,
        1.0,
        0.0,
        0.0,
        0.0,
        0.0,
        1.0,
        0.0,
        -0.906851053237915,
        4.247120380401611,
        4.889935493469238,
        1.0
      ],
      "name": "Cube.001_2"
    },
    {
      "mesh": 2,
      "name": "Object_8"
    },
    {
      "children": [
        10
      ],
      "matrix": [
        -0.9999999999999725,
        -1.656354807520873e-07,
        -1.66135012884234e-07,
        0.0,
        4.0871517971744295e-07,
        0.007430569088723309,
        -2.467546957644395,
        0.0,
        1.6614000370312156e-07,
        -1.0000255066169021,
        -0.003011395018973989,
        0.0,
        -0.859208345413208,
        6.338829517364502,
        4.239681720733643,
        1.0
      ],
      "name": "Cube_3"
    },
    {
      "mesh": 3,
      "name": "Object_10"
    },
    {
      "children": [
        12
      ],
      "matrix": [
        2.1000418663024902,
        0.0,
        0.0,
        0.0,
        0.0,
        2.1000418663024902,
        0.0,
        0.0,
        0.0,
        0.0,
        2.1000418663024902,
        0.0,
        2.400909900665283,
        4.366512298583984,
        4.803686618804932,
        1.0
      ],
      "name": "Cube.006_4"
    },
    {
      "mesh": 4,
      "name": "Object_12"
    },
    {
      "children": [
        14
      ],
      "matrix": [
        0.00010787972966942001,
        -0.6339576879816841,
        -0.013759274643751452,
        0.0,
        0.004971224503786149,
        0.013759697553287077,
        -0.6339381965759877,
        0.0,
        0.6340874976820924,
        -1.791809540829454e-08,
        0.004972394906159079,
        0.0,
        2.891782283782959,
        1.639943242073059,
        4.668597221374512,
        1.0
      ],
      "name": "Cylinder.003_5"
    },
    {
      "mesh": 5,
      "name": "Object_14"
    }
  ],
  "scene": 0,
  "scenes": [
    {
      "name": "Sketchfab_Scene",
      "nodes": [
        0
      ]
    }
  ]
}
